<svg viewBox="0 0 700 260" xmlns="http://www.w3.org/2000/svg" width="100%">
  <rect width="700" height="260" fill="#f9f9f7"/>
  <text x="175" y="28" text-anchor="middle" font-family="sans-serif" font-size="13" font-weight="600" fill="#6b6b6b">4 KB pages (old)</text>
  <rect x="60"  y="40" width="230" height="24" rx="4" fill="#dbeafe" stroke="#93c5fd" stroke-width="0.8"/>
  <rect x="60"  y="68" width="230" height="24" rx="4" fill="#dbeafe" stroke="#93c5fd" stroke-width="0.8"/>
  <rect x="60"  y="96" width="230" height="24" rx="4" fill="#dbeafe" stroke="#93c5fd" stroke-width="0.8"/>
  <rect x="60"  y="124" width="230" height="24" rx="4" fill="#dbeafe" stroke="#93c5fd" stroke-width="0.8"/>
  <text x="175" y="57" text-anchor="middle" font-family="monospace" font-size="10" fill="#1d4ed8">page 0 · 4 KB</text>
  <text x="175" y="85" text-anchor="middle" font-family="monospace" font-size="10" fill="#1d4ed8">page 1 · 4 KB</text>
  <text x="175" y="113" text-anchor="middle" font-family="monospace" font-size="10" fill="#1d4ed8">page 2 · 4 KB</text>
  <text x="175" y="141" text-anchor="middle" font-family="monospace" font-size="10" fill="#1d4ed8">page 3 · 4 KB</text>
  <rect x="60" y="152" width="230" height="24" rx="4" fill="#eff6ff" stroke="#bfdbfe" stroke-width="0.8" stroke-dasharray="4 2"/>
  <text x="175" y="168" text-anchor="middle" font-family="monospace" font-size="10" fill="#93c5fd">pages 415 &</text>
  <text x="175" y="205" text-anchor="middle" font-family="sans-serif" font-size="11" fill="#6b6b6b">16 pages to map 64 KB of library</text>
  <text x="175" y="222" text-anchor="middle" font-family="sans-serif" font-size="11" fill="#6b6b6b">’ 16 TLB entries needed</text>
  <line x1="350" y1="30" x2="350" y2="240" stroke="#e8e6e2" stroke-width="1" stroke-dasharray="4 3"/>
  <text x="525" y="28" text-anchor="middle" font-family="sans-serif" font-size="13" font-weight="600" fill="#166534">16 KB pages (new)</text>
  <rect x="410" y="40"  width="230" height="56" rx="4" fill="#dcfce7" stroke="#4ade80" stroke-width="0.8"/>
  <rect x="410" y="100" width="230" height="56" rx="4" fill="#dcfce7" stroke="#4ade80" stroke-width="0.8"/>
  <rect x="410" y="160" width="230" height="28" rx="4" fill="#f0fdf4" stroke="#bbf7d0" stroke-width="0.8" stroke-dasharray="4 2"/>
  <text x="525" y="72"  text-anchor="middle" font-family="monospace" font-size="10" fill="#166534">page 0 · 16 KB</text>
  <text x="525" y="132" text-anchor="middle" font-family="monospace" font-size="10" fill="#166534">page 1 · 16 KB</text>
  <text x="525" y="178" text-anchor="middle" font-family="monospace" font-size="10" fill="#4ade80">page 2 &</text>
  <text x="525" y="210" text-anchor="middle" font-family="sans-serif" font-size="11" fill="#166534">4 pages to map 64 KB of library</text>
  <text x="525" y="227" text-anchor="middle" font-family="sans-serif" font-size="11" fill="#166534">’ 4 TLB entries needed (4× fewer)</text>
</svg>
