<svg viewBox="0 0 1200 420" xmlns="http://www.w3.org/2000/svg" preserveAspectRatio="xMidYMid slice">
  <rect width="1200" height="420" fill="#0f1923"/>
  <defs>
    <pattern id="grid" width="40" height="40" patternUnits="userSpaceOnUse">
      <path d="M40 0H0V40" fill="none" stroke="rgba(255,255,255,0.04)" stroke-width="0.5"/>
    </pattern>
    <marker id="ah" viewBox="0 0 10 10" refX="8" refY="5" markerWidth="6" markerHeight="6" orient="auto-start-reverse">
      <path d="M2 1L8 5L2 9" fill="none" stroke="rgba(255,255,255,0.35)" stroke-width="1.5" stroke-linecap="round" stroke-linejoin="round"/>
    </marker>
  </defs>
  <rect width="1200" height="420" fill="url(#grid)"/>
  <rect x="80" y="80" width="180" height="240" rx="10" fill="rgba(59,130,246,0.10)" stroke="rgba(59,130,246,0.25)" stroke-width="1"/>
  <text x="170" y="168" text-anchor="middle" font-family="monospace" font-size="11" fill="rgba(59,130,246,0.5)" letter-spacing="2">4 KB</text>
  <text x="170" y="186" text-anchor="middle" font-family="monospace" font-size="10" fill="rgba(59,130,246,0.35)">PAGE SIZE</text>
  <rect x="98" y="198" width="144" height="14" rx="3" fill="rgba(59,130,246,0.12)"/>
  <rect x="98" y="218" width="144" height="14" rx="3" fill="rgba(59,130,246,0.08)"/>
  <rect x="98" y="238" width="144" height="14" rx="3" fill="rgba(59,130,246,0.08)"/>
  <rect x="98" y="258" width="144" height="14" rx="3" fill="rgba(59,130,246,0.06)"/>
  <rect x="98" y="278" width="80" height="14" rx="3" fill="rgba(59,130,246,0.06)"/>
  <text x="170" y="145" text-anchor="middle" font-family="sans-serif" font-size="12" fill="rgba(59,130,246,0.45)">old standard</text>
  <rect x="340" y="40" width="280" height="340" rx="14" fill="rgba(34,197,94,0.08)" stroke="rgba(34,197,94,0.4)" stroke-width="1.5"/>
  <rect x="340" y="40" width="280" height="340" rx="14" fill="none" stroke="rgba(34,197,94,0.15)" stroke-width="12"/>
  <text x="480" y="118" text-anchor="middle" font-family="monospace" font-size="13" fill="rgba(34,197,94,0.9)" letter-spacing="3">16 KB</text>
  <text x="480" y="138" text-anchor="middle" font-family="monospace" font-size="11" fill="rgba(34,197,94,0.55)">NEW PAGE SIZE</text>
  <text x="480" y="85" text-anchor="middle" font-family="sans-serif" font-size="12" fill="rgba(34,197,94,0.6)">Android 15 requirement</text>
  <rect x="360" y="158" width="240" height="13" rx="3" fill="rgba(34,197,94,0.15)"/>
  <rect x="360" y="177" width="240" height="13" rx="3" fill="rgba(34,197,94,0.12)"/>
  <rect x="360" y="196" width="240" height="13" rx="3" fill="rgba(34,197,94,0.10)"/>
  <rect x="360" y="215" width="240" height="13" rx="3" fill="rgba(34,197,94,0.10)"/>
  <rect x="360" y="234" width="240" height="13" rx="3" fill="rgba(34,197,94,0.08)"/>
  <rect x="360" y="253" width="240" height="13" rx="3" fill="rgba(34,197,94,0.08)"/>
  <rect x="360" y="272" width="240" height="13" rx="3" fill="rgba(34,197,94,0.07)"/>
  <rect x="360" y="291" width="240" height="13" rx="3" fill="rgba(34,197,94,0.07)"/>
  <rect x="360" y="310" width="180" height="13" rx="3" fill="rgba(34,197,94,0.06)"/>
  <rect x="360" y="329" width="120" height="13" rx="3" fill="rgba(34,197,94,0.05)"/>
  <rect x="410" y="355" width="140" height="22" rx="11" fill="rgba(34,197,94,0.15)" stroke="rgba(34,197,94,0.35)" stroke-width="1"/>
  <text x="480" y="370" text-anchor="middle" font-family="sans-serif" font-size="11" font-weight="600" fill="rgba(34,197,94,0.9)">REQUIRED FROM NOV 2025</text>
  <line x1="265" y1="200" x2="338" y2="200" stroke="rgba(255,255,255,0.2)" stroke-width="1.5" stroke-dasharray="4 3" marker-end="url(#ah)"/>
  <text x="301" y="192" text-anchor="middle" font-family="monospace" font-size="9" fill="rgba(255,255,255,0.25)">4×</text>
  <circle cx="820" cy="210" r="90" fill="rgba(97,218,251,0.05)" stroke="rgba(97,218,251,0.2)" stroke-width="1"/>
  <ellipse cx="820" cy="210" rx="88" ry="30" fill="none" stroke="rgba(97,218,251,0.25)" stroke-width="1.2"/>
  <ellipse cx="820" cy="210" rx="88" ry="30" fill="none" stroke="rgba(97,218,251,0.25)" stroke-width="1.2" transform="rotate(60 820 210)"/>
  <ellipse cx="820" cy="210" rx="88" ry="30" fill="none" stroke="rgba(97,218,251,0.25)" stroke-width="1.2" transform="rotate(120 820 210)"/>
  <circle cx="820" cy="210" r="16" fill="rgba(97,218,251,0.15)" stroke="rgba(97,218,251,0.5)" stroke-width="1.5"/>
  <text x="820" y="215" text-anchor="middle" font-family="monospace" font-size="11" fill="rgba(97,218,251,0.9)">RN</text>
  <text x="820" y="330" text-anchor="middle" font-family="sans-serif" font-size="13" fill="rgba(97,218,251,0.45)">React Native</text>
  <rect x="1010" y="130" width="90" height="20" rx="10" fill="rgba(61,220,132,0.15)" stroke="rgba(61,220,132,0.3)" stroke-width="1"/>
  <rect x="1000" y="155" width="110" height="130" rx="16" fill="rgba(61,220,132,0.1)" stroke="rgba(61,220,132,0.3)" stroke-width="1"/>
  <circle cx="1025" cy="175" r="7" fill="rgba(61,220,132,0.4)"/>
  <circle cx="1085" cy="175" r="7" fill="rgba(61,220,132,0.4)"/>
  <rect x="985" y="175" width="14" height="60" rx="7" fill="rgba(61,220,132,0.15)" stroke="rgba(61,220,132,0.25)" stroke-width="1"/>
  <rect x="1111" y="175" width="14" height="60" rx="7" fill="rgba(61,220,132,0.15)" stroke="rgba(61,220,132,0.25)" stroke-width="1"/>
  <rect x="1015" y="285" width="20" height="50" rx="8" fill="rgba(61,220,132,0.15)" stroke="rgba(61,220,132,0.25)" stroke-width="1"/>
  <rect x="1075" y="285" width="20" height="50" rx="8" fill="rgba(61,220,132,0.15)" stroke="rgba(61,220,132,0.25)" stroke-width="1"/>
  <text x="1055" y="360" text-anchor="middle" font-family="sans-serif" font-size="12" fill="rgba(61,220,132,0.4)">Android 15</text>
  <text x="480" y="408" text-anchor="middle" font-family="Georgia, serif" font-size="15" fill="rgba(255,255,255,0.18)" font-style="italic">The 16 KB page size change  what React Native developers must know</text>
</svg>
